<?xml version="1.0" encoding="UTF-8"?>
<svg id="Laag_1" data-name="Laag 1" xmlns="http://www.w3.org/2000/svg" xmlns:xlink="http://www.w3.org/1999/xlink" viewBox="0 0 1034.23 1329.08">
  <defs>
    <style>
      .cls-1 {
        fill: #d3b098;
      }

      .cls-1, .cls-2, .cls-3, .cls-4 {
        stroke-width: 0px;
      }

      .cls-5 {
        clip-path: url(#clippath);
      }

      .cls-2 {
        fill: none;
      }

      .cls-3 {
        fill: #f2d3bd;
      }

      .cls-4 {
        fill: #fff;
      }
    </style>
    <clipPath id="clippath">
      <rect class="cls-2" x="21.71" y="117.14" width="999.15" height="1209.28"/>
    </clipPath>
  </defs>
  <g class="cls-5">
    <path class="cls-3" d="M1020.79,1326.42H114.47c-6.3-16.3-12.78-32.61-19.08-48.72-32.42-82.81-65.21-166.92-72.06-255.48-4.45-59.1,2.59-118.38,11.3-177.11,6.85-47.05,14.64-94.11,23.34-140.98,3.33-18.34,8.15-48.91,22.79-62.62,16.86-15.56,45.95-1.48,60.95,10.74,16.3,13.34,27.79,30.76,35.76,50.02,9.08,22.23,13.34,46.88,15.01,70.77,2.96,44.84-2.04,90.22,6.3,134.32,5.56,29.09,16.49,56.69,27.42,83.93,3.15,7.59,6.11,15.01,9.08,22.42.18-1.48.18-3.15.36-4.63,5.93-116.35,11.86-232.88,17.79-349.22,1.67-33.54,3.34-67.07,5.19-100.6,2.22-43.72,4.82-168.22,6.11-176.93,3.15-21.68,6.48-43.35,9.64-64.84,2.41-16.12,5-32.43,12.97-46.51,9.26-16.11,25.56-27.97,43.91-31.68,12.04-2.59,24.83-1.3,36.5,2.97,11.48,4.44,15.19,9.82,21.49,19.82,12.78,20.75,17.23,45.39,20.75,69.29,19.64,134.32,25.01,269.93,29.09,405.36,3.7-61.32,7.41-122.46,11.11-183.79,7.41-124.13,9.26-248.44,24.64-371.83,2.78-23.53,14.27-46.13,36.31-57.06,20.57-10.01,51.51-8.9,66.89,9.82,17.78,21.67,23.34,50.76,27.42,78.55,21.68,147.28,34.46,296.98,35.39,446.49,5.74-50.03,11.86-99.86,18.53-149.69,5.01-38.54,5.01-77.26,7.41-115.8,2.04-29.64,4.63-67.99,30.94-87.07,12.79-9.26,27.05-11.11,42.43-10.56,11.48.38,19.45-.36,28.16,8.16,22.23,21.49,28.35,54.84,32.61,84.11,25.38,173.78,32.05,353.67,36.68,530.42,5.19-63.18,11.12-126.35,17.23-189.34,3.89-40.57-4.59-145.63,2.64-185.83,3.53-19.08,6.3-40.57,13.9-58.35,6.48-14.82,11.3-29.09,26.13-37.8,20.75-12.04,49.28-8.52,64.29,9.82,16.49,20.38,21.68,47.24,25.38,72.99,16.68,113.94,28.11,293.84,27.19,408.7-.37,64.47-.93,128.76-1.48,193.23,7.22,51.51,8.15,104.49,8.71,156.73.18,12.42.18,25.2-.74,37.8Z"/>
  </g>
  <path class="cls-4" d="M386.96,215.74c3.11,25.77,3.92,104.45,1.85,108.92-3.99,8.59-11.86,15.2-20.57,18.68-12.06,4.82-25.54,4.51-38.42,2.85-6.8-.88-13.63-2.13-19.88-4.92-8.21-3.67-17.22-11.55-19.45-20.5-2.44-9.81-1.53-90.09,5.55-119.03,3.7-15.12,8.97-31.27,16.64-42.81,8.26-12.44,21.34-20.95,34.08-18.14,26.35,5.83,36.84,47.08,40.2,74.95ZM543.58,28.26c-12.74-2.82-25.82,5.69-34.08,18.13-7.66,11.55-12.94,27.69-16.64,42.81-7.07,28.93-7.98,109.22-5.55,119.03,2.22,8.95,11.24,16.83,19.45,20.5,6.26,2.79,13.08,4.05,19.88,4.92,12.88,1.66,26.36,1.97,38.43-2.85,8.7-3.48,16.58-10.09,20.57-18.68,2.07-4.46,1.26-83.15-1.84-108.92-3.36-27.87-13.85-69.11-40.21-74.94ZM739,204.56c-12.74-2.82-25.82,5.69-34.08,18.13-7.67,11.55-12.94,27.69-16.64,42.81-7.08,28.93-7.98,109.22-5.55,119.03,2.22,8.95,11.24,16.83,19.44,20.5,6.26,2.8,13.08,4.05,19.88,4.92,12.88,1.66,26.37,1.97,38.43-2.85,8.7-3.48,16.58-10.09,20.57-18.68,2.07-4.46,1.27-83.15-1.84-108.92-3.36-27.86-13.85-69.11-40.2-74.94ZM965.14,428.2c-2.92-24.15-12-59.89-34.84-64.94-11.05-2.44-22.38,4.93-29.53,15.71-6.64,10.01-11.21,24-14.42,37.1-6.13,25.07-6.92,94.64-4.81,103.14,1.93,7.76,9.74,14.58,16.85,17.76,5.42,2.42,11.33,3.51,17.22,4.27,11.16,1.44,22.84,1.71,33.29-2.47,7.55-3.02,14.37-8.74,17.83-16.19,1.79-3.86,1.09-72.05-1.6-94.38ZM105.65,574.96c-7.22-.49-12.75,6.08-16.68,12.16-28.99,44.77-42.49,97.97-48.74,150.94-1.29,10.85-2.27,21.97.26,32.6,2.53,10.63,9.17,20.84,19.28,24.98,14.74,6.04,32.21-2.84,41.15-16.04,15.64-23.1,10.97-49.77,12.35-75.8,1.8-34.05,3.61-68.1,5.42-102.16.29-5.52.57-11.19-1.26-16.41-1.82-5.21-6.27-9.91-11.78-10.28Z"/>
  <path class="cls-4" d="M372.2,279.81c-.15,15.88.98,32.39-.9,48.15-1.58,13.23-19.32,13.38-20.71,0-1.6-15.35-.28-31.39-.18-46.81.09-15.05.37-30.09.61-45.14.46-28.29,2.11-56.66-3.74-84.58-.7-3.38,3.68-5.29,5.56-2.34,15.73,24.7,18.86,54.48,19.4,83.24.3,15.81.1,31.66-.04,47.47ZM569.06,119.79c-.54-28.76-3.66-58.54-19.4-83.24-1.88-2.95-6.26-1.03-5.55,2.34,5.85,27.92,4.2,56.29,3.73,84.58-.24,15.05-.52,30.09-.61,45.14-.09,15.43-1.42,31.46.18,46.81,1.39,13.38,19.14,13.23,20.71,0,1.88-15.77.76-32.28.9-48.15.14-15.81.34-31.66.04-47.47ZM764.48,296.09c-.54-28.76-3.66-58.54-19.41-83.24-1.88-2.95-6.26-1.03-5.55,2.34,5.85,27.92,4.2,56.29,3.74,84.58-.24,15.05-.52,30.09-.61,45.14-.09,15.43-1.42,31.46.18,46.81,1.4,13.38,19.14,13.23,20.72,0,1.88-15.77.76-32.28.9-48.15.14-15.81.33-31.66.04-47.47ZM952.34,483.71c.13-13.71.29-27.44.04-41.14-.47-24.92-3.18-50.73-16.81-72.13-1.63-2.56-5.43-.9-4.81,2.03,5.07,24.19,3.64,48.77,3.24,73.29-.21,13.04-.45,26.07-.53,39.11-.08,13.37-1.23,27.27.16,40.57,1.2,11.59,16.58,11.46,17.95,0,1.63-13.67.66-27.97.78-41.72ZM93.05,593.71c-15.96,26.19-26.76,54.58-34.1,84.31-3.51,14.2-6.01,28.65-7.84,43.16-1.48,11.74-6.78,32.11,1.54,41.94,1.52,1.8,4.75,1.65,6.29,0,4.51-4.8,4.51-11.76,5.01-18.1.56-6.96.98-13.92,1.76-20.86,1.65-14.71,4.31-29.29,7.61-43.71,6.53-28.52,16.4-56.42,27.19-83.58,1.76-4.42-5.14-6.97-7.47-3.15Z"/>
  <path class="cls-1" d="M646.33,882.63c.44,23.95,2.69,48.66.28,72.53-.2,1.96-3.36,2.78-3.73.51-3.78-23.27-2.87-47.66-3.3-71.17-.44-24.18-.73-48.36-.84-72.55-.22-48.95-.46-98.06,2.08-146.95.15-2.76,4.26-2.78,4.3,0,.76,48.35-.1,96.73.27,145.09.19,24.18.5,48.36.95,72.55ZM439.51,868.89c-.16-34.58.27-69.17-.17-103.74-.04-2.85-4.29-2.83-4.42,0-1.55,34.55-1.64,69.17-1.64,103.74,0,17.29.13,34.58.33,51.87.18,15.9-.97,33.01,2.19,48.64.33,1.66,3.15,1.73,3.43,0,2.53-15.78.85-32.7.66-48.64-.2-17.29-.31-34.58-.39-51.87ZM552.29,260.38c-2.18.14-4.36.33-6.54.45-4.38.24-8.77.23-13.14-.07-8.88-.61-17.47-2.65-26.04-4.94-1.98-.53-3.42,2.51-1.44,3.42,8.35,3.82,17.43,5.76,26.54,6.59,4.68.42,9.39.54,14.07.26,3.99-.23,9.62-.22,12.9-2.72,1.04-.8,1-2.42-.38-2.85-1.97-.62-3.96-.26-5.98-.13ZM360.8,370.13c-3.44-.68-6.92-1.13-10.36-1.81-7.16-1.43-14.2-3.28-21.18-5.41-2.79-.85-3.79,3.28-1.18,4.29,7.06,2.73,14.34,4.82,21.77,6.29,3.66.73,7.35,1.44,11.08,1.66,3.52.21,7.36.6,10.83-.19,1.38-.31,1.14-2.13,0-2.55-3.43-1.27-7.37-1.55-10.96-2.27ZM745.18,427.75c-2.08.05-4.16.18-6.24.24-3.87.11-7.74.06-11.61-.17-8.12-.49-16.24-1.49-24.2-3.18-2.19-.47-3.09,2.71-.93,3.38,8.06,2.46,16.26,4.14,24.68,4.74,4.16.3,8.33.4,12.5.29,2.05-.05,4.09-.16,6.13-.42,1.86-.24,3.89-.29,5.21-1.73.71-.78.52-1.84-.31-2.43-1.49-1.06-3.47-.76-5.23-.72ZM938.49,558.32c-1.39-.92-3.26-.71-4.84-.53-1.83.21-3.62.51-5.46.6-3.54.2-7.14.07-10.65-.47-7.22-1.13-14.08-3.58-20.28-7.46-2.52-1.58-4.76,2.33-2.32,3.96,6.56,4.38,14.09,7.41,21.9,8.59,3.87.58,7.78.83,11.68.62,3.14-.17,8.7-.09,10.51-3.21.43-.74.15-1.64-.55-2.09ZM244.64,1225.62c-1.86-21.57-3.35-43.18-4.47-64.8-2.21-42.62-3.29-85.33-3.32-128.01,0-3.34-5.08-3.33-5.18,0-1.31,43.31-.89,86.59,1.36,129.86,1.1,21.01,2.54,41.99,4.33,62.94.95,11.09,1.95,22.19,3.15,33.26,1.06,9.82,1.52,20.77,4.99,30.04.82,2.19,3.66,1.71,3.93-.53,1.25-10.2-.82-21.15-1.83-31.35-1.04-10.46-2.06-20.93-2.96-31.41ZM95.45,800.12c-2.51,1.96-4.19,4.79-6.62,6.88-2.35,2.02-4.9,3.73-7.71,5.06-5.62,2.65-12.04,3.35-18.16,2.45-2.71-.4-3.95,3.43-1.16,4.23,7.2,2.07,14.91.85,21.66-2.19,3.24-1.47,6.39-3.47,8.95-5.96,2.63-2.54,5.36-5.58,5.82-9.31.2-1.59-1.83-1.9-2.79-1.16ZM832.5,929.81c-.64,1.85-.78,3.77-.99,5.72-.2,1.85-.33,3.71-.48,5.57-.31,3.72-.98,7.7-.21,11.39.22,1.08,1.39,1.87,2.45,1.87,1.16,0,2.09-.8,2.45-1.87.65-1.9.71-3.83.83-5.82.11-1.86.2-3.71.27-5.57.15-3.72.61-7.64-.17-11.29-.47-2.21-3.49-1.86-4.14,0Z"/>
</svg>