<?xml version="1.0" encoding="UTF-8"?>
<svg id="Laag_1" data-name="Laag 1" xmlns="http://www.w3.org/2000/svg" xmlns:xlink="http://www.w3.org/1999/xlink" viewBox="0 0 1034.23 1329.08">
  <defs>
    <style>
      .cls-1 {
        fill: #d3b098;
      }

      .cls-1, .cls-2, .cls-3, .cls-4 {
        stroke-width: 0px;
      }

      .cls-5 {
        clip-path: url(#clippath);
      }

      .cls-2 {
        fill: none;
      }

      .cls-3 {
        fill: #1ba8f0;
      }

      .cls-4 {
        fill: #f2d3bd;
      }
    </style>
    <clipPath id="clippath">
      <rect class="cls-2" x="22.27" y="114.23" width="999.15" height="1209.28"/>
    </clipPath>
  </defs>
  <g class="cls-5">
    <path class="cls-4" d="M1021.36,1323.51H115.04c-6.3-16.3-12.78-32.61-19.08-48.72-32.42-82.81-65.21-166.92-72.06-255.48-4.45-59.1,2.59-118.38,11.3-177.11,6.85-47.05,14.64-94.11,23.34-140.98,3.33-18.34,8.15-48.91,22.79-62.62,16.86-15.56,45.95-1.48,60.95,10.74,16.3,13.34,27.79,30.76,35.76,50.02,9.08,22.23,13.34,46.88,15.01,70.77,2.96,44.84-2.04,90.22,6.3,134.32,5.56,29.09,16.49,56.69,27.42,83.93,3.15,7.59,6.11,15.01,9.08,22.42.18-1.48.18-3.15.36-4.63,5.93-116.35,11.86-232.88,17.79-349.22,1.67-33.54,3.34-67.07,5.19-100.6,2.22-43.72,4.82-168.22,6.11-176.93,3.15-21.68,6.48-43.35,9.64-64.84,2.41-16.12,5-32.43,12.97-46.51,9.26-16.11,25.56-27.97,43.91-31.68,12.04-2.59,24.83-1.3,36.5,2.97,11.48,4.44,15.19,9.82,21.49,19.82,12.78,20.75,17.23,45.39,20.75,69.29,19.64,134.32,25.01,269.93,29.09,405.36,3.7-61.32,7.41-122.46,11.11-183.79,7.41-124.13,9.26-248.44,24.64-371.83,2.78-23.53,14.27-46.13,36.31-57.06,20.57-10.01,51.51-8.9,66.89,9.82,17.78,21.67,23.34,50.76,27.42,78.55,21.68,147.28,34.46,296.98,35.39,446.49,5.74-50.03,11.86-99.86,18.53-149.69,5.01-38.54,5.01-77.26,7.41-115.8,2.04-29.64,4.63-67.99,30.94-87.07,12.79-9.26,27.05-11.11,42.43-10.56,11.48.38,19.45-.36,28.16,8.16,22.23,21.49,28.35,54.84,32.61,84.11,25.38,173.78,32.05,353.67,36.68,530.42,5.19-63.18,11.12-126.35,17.23-189.34,3.89-40.57-4.59-145.63,2.64-185.83,3.53-19.08,6.3-40.57,13.9-58.35,6.48-14.82,11.3-29.09,26.13-37.8,20.75-12.04,49.28-8.52,64.29,9.82,16.49,20.38,21.68,47.24,25.38,72.99,16.68,113.94,28.11,293.84,27.19,408.7-.37,64.47-.93,128.76-1.48,193.23,7.22,51.51,8.15,104.49,8.71,156.73.18,12.42.18,25.2-.74,37.8Z"/>
  </g>
  <path class="cls-1" d="M646.9,879.71c.44,23.95,2.69,48.66.28,72.53-.2,1.96-3.36,2.78-3.73.51-3.78-23.27-2.87-47.66-3.3-71.17-.44-24.18-.73-48.36-.84-72.55-.22-48.95-.46-98.06,2.08-146.95.15-2.76,4.26-2.78,4.3,0,.76,48.35-.1,96.73.27,145.09.19,24.18.5,48.36.95,72.55ZM440.07,865.98c-.16-34.58.27-69.17-.17-103.74-.04-2.85-4.29-2.83-4.42,0-1.55,34.55-1.64,69.17-1.64,103.74,0,17.29.13,34.58.33,51.87.18,15.9-.97,33.01,2.19,48.64.33,1.66,3.15,1.73,3.43,0,2.53-15.78.85-32.7.66-48.64-.2-17.29-.31-34.58-.39-51.87ZM552.85,257.46c-2.18.14-4.36.33-6.54.45-4.38.24-8.77.23-13.14-.07-8.88-.61-17.47-2.65-26.04-4.94-1.98-.53-3.42,2.51-1.44,3.42,8.35,3.82,17.43,5.76,26.54,6.59,4.68.42,9.39.54,14.07.26,3.99-.23,9.62-.22,12.9-2.72,1.04-.8,1-2.42-.38-2.85-1.97-.62-3.96-.26-5.98-.13ZM361.37,367.21c-3.44-.68-6.92-1.13-10.36-1.81-7.16-1.43-14.2-3.28-21.18-5.41-2.79-.85-3.79,3.28-1.18,4.29,7.06,2.73,14.34,4.82,21.77,6.29,3.66.73,7.35,1.44,11.08,1.66,3.52.21,7.36.6,10.83-.19,1.38-.31,1.14-2.13,0-2.55-3.43-1.27-7.37-1.55-10.96-2.27ZM745.74,424.83c-2.08.05-4.16.18-6.24.24-3.87.11-7.74.06-11.61-.17-8.12-.49-16.24-1.49-24.2-3.18-2.19-.47-3.09,2.71-.93,3.38,8.06,2.46,16.26,4.14,24.68,4.74,4.16.3,8.33.4,12.5.29,2.05-.05,4.09-.16,6.13-.42,1.86-.24,3.89-.29,5.21-1.73.71-.78.52-1.84-.31-2.43-1.49-1.06-3.47-.76-5.23-.72ZM939.05,555.4c-1.39-.92-3.26-.71-4.84-.53-1.83.21-3.62.51-5.46.6-3.54.2-7.14.07-10.65-.47-7.22-1.13-14.08-3.58-20.28-7.46-2.52-1.58-4.76,2.33-2.32,3.96,6.56,4.38,14.09,7.41,21.9,8.59,3.87.58,7.78.83,11.68.62,3.14-.17,8.7-.09,10.51-3.21.43-.74.15-1.64-.55-2.09ZM245.2,1222.7c-1.86-21.57-3.35-43.18-4.47-64.8-2.21-42.62-3.29-85.33-3.32-128.01,0-3.34-5.08-3.33-5.18,0-1.31,43.31-.89,86.59,1.36,129.86,1.1,21.01,2.54,41.99,4.33,62.94.95,11.09,1.95,22.19,3.15,33.26,1.06,9.82,1.52,20.77,4.99,30.04.82,2.19,3.66,1.71,3.93-.53,1.25-10.2-.82-21.15-1.83-31.35-1.04-10.46-2.06-20.93-2.96-31.41ZM96.02,797.2c-2.51,1.96-4.19,4.79-6.62,6.88-2.35,2.02-4.9,3.73-7.71,5.06-5.62,2.65-12.04,3.35-18.16,2.45-2.71-.4-3.95,3.43-1.16,4.23,7.2,2.07,14.91.85,21.66-2.19,3.24-1.47,6.39-3.47,8.95-5.96,2.63-2.54,5.36-5.58,5.82-9.31.2-1.59-1.83-1.9-2.79-1.16ZM833.06,926.89c-.64,1.85-.78,3.77-.99,5.72-.2,1.85-.33,3.71-.48,5.57-.31,3.72-.98,7.7-.21,11.39.22,1.08,1.39,1.87,2.45,1.87,1.16,0,2.09-.8,2.45-1.87.65-1.9.71-3.83.83-5.82.11-1.86.2-3.71.27-5.57.15-3.72.61-7.64-.17-11.29-.47-2.21-3.49-1.86-4.14,0Z"/>
  <path class="cls-3" d="M388.39,267.57c3.11,14.37,3.92,58.25,1.85,60.74-3.99,4.79-11.86,8.48-20.57,10.42-12.06,2.69-25.54,2.51-38.42,1.59-6.8-.49-13.63-1.19-19.88-2.74-8.21-2.04-17.22-6.44-19.45-11.43-2.44-5.47-1.53-50.24,5.55-66.38,3.7-8.43,8.97-17.44,16.64-23.88,8.26-6.94,21.34-11.69,34.08-10.11,26.35,3.25,36.84,26.26,40.2,41.8ZM545.02,96.39c-12.74-1.8-25.82,3.64-34.08,11.59-7.66,7.38-12.94,17.7-16.64,27.37-7.07,18.5-7.98,69.82-5.55,76.09,2.22,5.72,11.24,10.76,19.45,13.1,6.26,1.78,13.08,2.59,19.88,3.15,12.88,1.06,26.36,1.26,38.43-1.82,8.7-2.22,16.58-6.45,20.57-11.94,2.07-2.85,1.26-53.16-1.84-69.63-3.36-17.82-13.85-44.18-40.21-47.91ZM740.43,263.69c-12.74-1.93-25.82,3.89-34.08,12.38-7.67,7.88-12.94,18.91-16.64,29.23-7.08,19.76-7.98,74.58-5.55,81.28,2.22,6.11,11.24,11.49,19.44,14,6.26,1.91,13.08,2.76,19.88,3.36,12.88,1.13,26.37,1.34,38.43-1.95,8.7-2.38,16.58-6.89,20.57-12.76,2.07-3.04,1.27-56.78-1.84-74.38-3.36-19.03-13.85-47.19-40.2-51.17ZM966.57,457.14c-2.92-16.67-12-41.34-34.84-44.83-11.05-1.69-22.38,3.4-29.53,10.84-6.64,6.91-11.21,16.57-14.42,25.61-6.13,17.31-6.92,65.33-4.81,71.2,1.93,5.35,9.74,10.07,16.85,12.26,5.42,1.67,11.33,2.42,17.22,2.94,11.16.99,22.84,1.18,33.29-1.7,7.55-2.08,14.37-6.04,17.83-11.17,1.79-2.67,1.09-49.74-1.6-65.15ZM107.08,615.33c-7.22-.39-12.75,4.81-16.68,9.6-28.99,35.37-42.49,77.41-48.74,119.26-1.29,8.57-2.27,17.36.26,25.76,2.53,8.4,9.17,16.46,19.28,19.74,14.74,4.77,32.21-2.25,41.15-12.67,15.64-18.25,10.97-39.32,12.35-59.89,1.8-26.91,3.61-53.81,5.42-80.72.29-4.36.57-8.84-1.26-12.96-1.82-4.12-6.27-7.83-11.78-8.12Z"/>
</svg>